<svg width="20" height="25" viewBox="0 0 20 25" fill="none" xmlns="http://www.w3.org/2000/svg">
<path id="Vector" d="M6.25 20H13.75C14.1042 20 14.4013 19.88 14.6412 19.64C14.8812 19.4 15.0008 19.1033 15 18.75C15 18.3958 14.88 18.0987 14.64 17.8587C14.4 17.6187 14.1033 17.4992 13.75 17.5H6.25C5.89583 17.5 5.59875 17.62 5.35875 17.86C5.11875 18.1 4.99917 18.3967 5 18.75C5 19.1042 5.12 19.4012 5.36 19.6412C5.6 19.8812 5.89667 20.0008 6.25 20ZM6.25 15H13.75C14.1042 15 14.4013 14.88 14.6412 14.64C14.8812 14.4 15.0008 14.1033 15 13.75C15 13.3958 14.88 13.0987 14.64 12.8587C14.4 12.6187 14.1033 12.4992 13.75 12.5H6.25C5.89583 12.5 5.59875 12.62 5.35875 12.86C5.11875 13.1 4.99917 13.3967 5 13.75C5 14.1042 5.12 14.4013 5.36 14.6412C5.6 14.8812 5.89667 15.0008 6.25 15ZM2.5 25C1.8125 25 1.22375 24.755 0.733752 24.265C0.243752 23.775 -0.000831211 23.1867 2.12224e-06 22.5V2.5C2.12224e-06 1.8125 0.245002 1.22375 0.735002 0.733752C1.225 0.243752 1.81334 -0.000831211 2.5 2.12224e-06H11.4688C11.8021 2.12224e-06 12.12 0.0625022 12.4225 0.187502C12.725 0.312502 12.9904 0.489585 13.2187 0.718752L19.2812 6.78125C19.5104 7.01042 19.6875 7.27625 19.8125 7.57875C19.9375 7.88125 20 8.19875 20 8.53125V22.5C20 23.1875 19.755 23.7762 19.265 24.2662C18.775 24.7562 18.1867 25.0008 17.5 25H2.5ZM11.25 7.5V2.5H2.5V22.5H17.5V8.75H12.5C12.1458 8.75 11.8487 8.63 11.6087 8.39C11.3687 8.15 11.2492 7.85333 11.25 7.5Z" fill="black"/>
</svg>
